<svg width="146" height="42" viewBox="0 0 146 42" fill="none" xmlns="http://www.w3.org/2000/svg">
<path d="M31.42 3.0438L28.8729 1.54973C28.2592 1.18977 27.5606 1 26.8491 1H25.2243C24.1198 1 23.2243 1.89543 23.2243 3V40C23.2243 40.5523 23.672 41 24.2243 41H26.9656C27.6655 41 28.3531 40.8164 28.9598 40.4675L31.9385 38.7544C32.5589 38.3976 32.9414 37.7364 32.9414 37.0207V30.8297" stroke="#25AAE5" stroke-width="1.75" stroke-linecap="round"/>
<path d="M35.1978 36.9141L37.2015 35.7416C37.8146 35.3828 38.1914 34.7258 38.1914 34.0154V29.8095M27.8854 36.4762V30.9616C27.8854 30.2485 28.2651 29.5893 28.882 29.2315L33.0875 26.7925" stroke="#25AAE5" stroke-width="1.75" stroke-linecap="round"/>
<path d="M43 23.3865V26.3049C43 27.0269 42.6109 27.6929 41.9818 28.0473L39.6637 29.3536C39.0539 29.6972 38.3088 29.697 37.6992 29.3531L34.0058 27.2694C33.3772 26.9148 32.9885 26.2491 32.9885 25.5275V23.3865" stroke="#25AAE5" stroke-width="1.75" stroke-linecap="round"/>
<path d="M39.3684 13.8948L41.9809 15.365C42.6104 15.7193 43 16.3856 43 17.108V19.9462C43 20.6585 42.6212 21.317 42.0055 21.6751L37.8961 24.0651" stroke="#25AAE5" stroke-width="1.75" stroke-linecap="round"/>
<path d="M32.4495 15.7906L37.19 13.0587C37.8096 12.7016 38.1914 12.0409 38.1914 11.3258V8.05098C38.1914 7.33067 37.8041 6.66599 37.1773 6.31089L34.3679 4.71904C33.7563 4.37249 33.0076 4.37249 32.396 4.71904L27.8854 7.27476" stroke="#25AAE5" stroke-width="1.75" stroke-linecap="round"/>
<path d="M33.8187 9.37085L28.8854 12.2008C28.2638 12.5573 27.8805 13.2191 27.8805 13.9356V17.0225C27.8805 17.7637 28.2904 18.444 28.9456 18.7905L32.0519 20.4332C32.6624 20.7561 33.3963 20.7411 33.9932 20.3937L38.3828 17.838" stroke="#25AAE5" stroke-width="1.75" stroke-linecap="round"/>
<path d="M23.5672 21.2449L28.4258 24.0186" stroke="#25AAE5" stroke-width="1.75" stroke-linecap="round"/>
<mask id="path-8-inside-1_61_1059" fill="white">
<ellipse cx="28.4271" cy="24.0164" rx="1.42321" ry="1.41119"/>
</mask>
<ellipse cx="28.4271" cy="24.0164" rx="1.42321" ry="1.41119" fill="black"/>
<path d="M27.8503 24.0164C27.8503 23.6753 28.1246 23.4276 28.4271 23.4276V27.4276C30.3017 27.4276 31.8503 25.9163 31.8503 24.0164H27.8503ZM28.4271 23.4276C28.7296 23.4276 29.0039 23.6753 29.0039 24.0164H25.0039C25.0039 25.9163 26.5525 27.4276 28.4271 27.4276V23.4276ZM29.0039 24.0164C29.0039 24.3576 28.7296 24.6052 28.4271 24.6052V20.6052C26.5525 20.6052 25.0039 22.1165 25.0039 24.0164H29.0039ZM28.4271 24.6052C28.1246 24.6052 27.8503 24.3576 27.8503 24.0164H31.8503C31.8503 22.1165 30.3017 20.6052 28.4271 20.6052V24.6052Z" fill="#25AAE5" mask="url(#path-8-inside-1_61_1059)"/>
<mask id="path-10-inside-2_61_1059" fill="white">
<ellipse cx="32.9916" cy="23.3841" rx="1.42321" ry="1.41119"/>
</mask>
<ellipse cx="32.9916" cy="23.3841" rx="1.42321" ry="1.41119" fill="black"/>
<path d="M32.4148 23.3841C32.4148 23.0429 32.689 22.7953 32.9916 22.7953V26.7953C34.8661 26.7953 36.4148 25.284 36.4148 23.3841H32.4148ZM32.9916 22.7953C33.2941 22.7953 33.5684 23.0429 33.5684 23.3841H29.5684C29.5684 25.284 31.117 26.7953 32.9916 26.7953V22.7953ZM33.5684 23.3841C33.5684 23.7252 33.2941 23.9729 32.9916 23.9729V19.9729C31.117 19.9729 29.5684 21.4842 29.5684 23.3841H33.5684ZM32.9916 23.9729C32.689 23.9729 32.4148 23.7252 32.4148 23.3841H36.4148C36.4148 21.4842 34.8661 19.9729 32.9916 19.9729V23.9729Z" fill="#25AAE5" mask="url(#path-10-inside-2_61_1059)"/>
<mask id="path-12-inside-3_61_1059" fill="white">
<ellipse cx="32.9447" cy="30.8288" rx="1.42321" ry="1.41119"/>
</mask>
<ellipse cx="32.9447" cy="30.8288" rx="1.42321" ry="1.41119" fill="black"/>
<path d="M32.3679 30.8288C32.3679 30.4877 32.6422 30.24 32.9447 30.24V34.24C34.8193 34.24 36.3679 32.7287 36.3679 30.8288H32.3679ZM32.9447 30.24C33.2472 30.24 33.5215 30.4877 33.5215 30.8288H29.5215C29.5215 32.7287 31.0701 34.24 32.9447 34.24V30.24ZM33.5215 30.8288C33.5215 31.1699 33.2472 31.4176 32.9447 31.4176V27.4176C31.0701 27.4176 29.5215 28.9289 29.5215 30.8288H33.5215ZM32.9447 31.4176C32.6422 31.4176 32.3679 31.1699 32.3679 30.8288H36.3679C36.3679 28.9289 34.8193 27.4176 32.9447 27.4176V31.4176Z" fill="#25AAE5" mask="url(#path-12-inside-3_61_1059)"/>
<mask id="path-14-inside-4_61_1059" fill="white">
<ellipse cx="27.8881" cy="36.4758" rx="1.42321" ry="1.41119"/>
</mask>
<ellipse cx="27.8881" cy="36.4758" rx="1.42321" ry="1.41119" fill="black"/>
<path d="M27.3113 36.4758C27.3113 36.1346 27.5855 35.887 27.8881 35.887V39.887C29.7626 39.887 31.3113 38.3757 31.3113 36.4758H27.3113ZM27.8881 35.887C28.1906 35.887 28.4648 36.1346 28.4648 36.4758H24.4648C24.4648 38.3757 26.0135 39.887 27.8881 39.887V35.887ZM28.4648 36.4758C28.4648 36.8169 28.1906 37.0646 27.8881 37.0646V33.0646C26.0135 33.0646 24.4648 34.5759 24.4648 36.4758H28.4648ZM27.8881 37.0646C27.5855 37.0646 27.3113 36.8169 27.3113 36.4758H31.3113C31.3113 34.5759 29.7626 33.0646 27.8881 33.0646V37.0646Z" fill="#25AAE5" mask="url(#path-14-inside-4_61_1059)"/>
<mask id="path-16-inside-5_61_1059" fill="white">
<ellipse cx="27.8881" cy="7.27484" rx="1.42321" ry="1.41119"/>
</mask>
<ellipse cx="27.8881" cy="7.27484" rx="1.42321" ry="1.41119" fill="black"/>
<path d="M27.3113 7.27484C27.3113 6.9337 27.5855 6.68603 27.8881 6.68603V10.686C29.7626 10.686 31.3113 9.17474 31.3113 7.27484H27.3113ZM27.8881 6.68603C28.1906 6.68603 28.4648 6.9337 28.4648 7.27484H24.4648C24.4648 9.17474 26.0135 10.686 27.8881 10.686V6.68603ZM28.4648 7.27484C28.4648 7.61598 28.1906 7.86365 27.8881 7.86365V3.86365C26.0135 3.86365 24.4648 5.37494 24.4648 7.27484H28.4648ZM27.8881 7.86365C27.5855 7.86365 27.3113 7.61598 27.3113 7.27484H31.3113C31.3113 5.37494 29.7626 3.86365 27.8881 3.86365V7.86365Z" fill="#25AAE5" mask="url(#path-16-inside-5_61_1059)"/>
<mask id="path-18-inside-6_61_1059" fill="white">
<ellipse cx="33.8275" cy="9.36847" rx="1.42321" ry="1.41119"/>
</mask>
<ellipse cx="33.8275" cy="9.36847" rx="1.42321" ry="1.41119" fill="black"/>
<path d="M33.2507 9.36847C33.2507 9.02732 33.525 8.77966 33.8275 8.77966V12.7797C35.7021 12.7797 37.2507 11.2684 37.2507 9.36847H33.2507ZM33.8275 8.77966C34.13 8.77966 34.4043 9.02732 34.4043 9.36847H30.4043C30.4043 11.2684 31.9529 12.7797 33.8275 12.7797V8.77966ZM34.4043 9.36847C34.4043 9.70961 34.13 9.95728 33.8275 9.95728V5.95728C31.9529 5.95728 30.4043 7.46856 30.4043 9.36847H34.4043ZM33.8275 9.95728C33.525 9.95728 33.2507 9.70961 33.2507 9.36847H37.2507C37.2507 7.46856 35.7021 5.95728 33.8275 5.95728V9.95728Z" fill="#25AAE5" mask="url(#path-18-inside-6_61_1059)"/>
<mask id="path-20-inside-7_61_1059" fill="white">
<ellipse cx="32.4525" cy="15.7905" rx="1.42321" ry="1.41119"/>
</mask>
<ellipse cx="32.4525" cy="15.7905" rx="1.42321" ry="1.41119" fill="black"/>
<path d="M31.8757 15.7905C31.8757 15.4493 32.15 15.2017 32.4525 15.2017V19.2017C34.3271 19.2017 35.8757 17.6904 35.8757 15.7905H31.8757ZM32.4525 15.2017C32.755 15.2017 33.0293 15.4493 33.0293 15.7905H29.0293C29.0293 17.6904 30.5779 19.2017 32.4525 19.2017V15.2017ZM33.0293 15.7905C33.0293 16.1316 32.755 16.3793 32.4525 16.3793V12.3793C30.5779 12.3793 29.0293 13.8906 29.0293 15.7905H33.0293ZM32.4525 16.3793C32.15 16.3793 31.8757 16.1316 31.8757 15.7905H35.8757C35.8757 13.8906 34.3271 12.3793 32.4525 12.3793V16.3793Z" fill="#25AAE5" mask="url(#path-20-inside-7_61_1059)"/>
<mask id="path-22-inside-8_61_1059" fill="white">
<ellipse cx="37.8978" cy="24.063" rx="1.42321" ry="1.41119"/>
</mask>
<ellipse cx="37.8978" cy="24.063" rx="1.42321" ry="1.41119" fill="black"/>
<path d="M37.321 24.063C37.321 23.7219 37.5953 23.4742 37.8978 23.4742V27.4742C39.7724 27.4742 41.321 25.9629 41.321 24.063H37.321ZM37.8978 23.4742C38.2003 23.4742 38.4746 23.7219 38.4746 24.063H34.4746C34.4746 25.9629 36.0233 27.4742 37.8978 27.4742V23.4742ZM38.4746 24.063C38.4746 24.4042 38.2003 24.6519 37.8978 24.6519V20.6519C36.0233 20.6519 34.4746 22.1631 34.4746 24.063H38.4746ZM37.8978 24.6519C37.5953 24.6519 37.321 24.4042 37.321 24.063H41.321C41.321 22.1631 39.7724 20.6519 37.8978 20.6519V24.6519Z" fill="#25AAE5" mask="url(#path-22-inside-8_61_1059)"/>
<mask id="path-24-inside-9_61_1059" fill="white">
<ellipse cx="38.39" cy="17.8372" rx="1.42321" ry="1.41119"/>
</mask>
<ellipse cx="38.39" cy="17.8372" rx="1.42321" ry="1.41119" fill="black"/>
<path d="M37.8132 17.8372C37.8132 17.4961 38.0875 17.2484 38.39 17.2484V21.2484C40.2646 21.2484 41.8132 19.7371 41.8132 17.8372H37.8132ZM38.39 17.2484C38.6925 17.2484 38.9668 17.4961 38.9668 17.8372H34.9668C34.9668 19.7371 36.5154 21.2484 38.39 21.2484V17.2484ZM38.9668 17.8372C38.9668 18.1784 38.6925 18.426 38.39 18.426V14.426C36.5154 14.426 34.9668 15.9373 34.9668 17.8372H38.9668ZM38.39 18.426C38.0875 18.426 37.8132 18.1784 37.8132 17.8372H41.8132C41.8132 15.9373 40.2646 14.426 38.39 14.426V18.426Z" fill="#25AAE5" mask="url(#path-24-inside-9_61_1059)"/>
<path d="M12.5839 3.0438L15.131 1.54973C15.7447 1.18977 16.4433 1 17.1548 1H18.7796C19.8841 1 20.7796 1.89543 20.7796 3V39C20.7796 40.1046 19.8841 41 18.7796 41H17.0383C16.3384 41 15.6508 40.8164 15.0441 40.4675L12.0654 38.7544C11.445 38.3976 11.0625 37.7364 11.0625 37.0207V30.8297" stroke="white" stroke-width="1.75" stroke-linecap="round"/>
<path d="M8.80419 36.9141L6.80043 35.7416C6.18733 35.3828 5.81055 34.7258 5.81055 34.0154V29.8095M16.1165 36.4762V30.9616C16.1165 30.2485 15.7368 29.5893 15.1199 29.2315L10.9145 26.7925" stroke="white" stroke-width="1.75" stroke-linecap="round"/>
<path d="M1 23.3845V26.3029C1 27.0249 1.38915 27.6909 2.01816 28.0453L4.33628 29.3516C4.9461 29.6952 5.69119 29.695 6.30084 29.3511L9.99425 27.2674C10.6228 26.9128 11.0115 26.2471 11.0115 25.5255V23.3358" stroke="white" stroke-width="1.75" stroke-linecap="round"/>
<path d="M4.63163 13.8949L2.01911 15.3652C1.38956 15.7195 1 16.3857 1 17.1081V19.9464C1 20.6586 1.3788 21.3171 1.99451 21.6752L6.10391 24.0652" stroke="white" stroke-width="1.75" stroke-linecap="round"/>
<path d="M11.5525 15.7906L6.81193 13.0587C6.19235 12.7016 5.81055 12.0409 5.81055 11.3258V8.05098C5.81055 7.33067 6.19789 6.66599 6.8246 6.31089L9.63407 4.71904C10.2457 4.37249 10.9943 4.37249 11.606 4.71904L16.1165 7.27476" stroke="white" stroke-width="1.75" stroke-linecap="round"/>
<path d="M10.1813 9.37085L15.1146 12.2008C15.7362 12.5573 16.1195 13.2191 16.1195 13.9356V17.0225C16.1195 17.7637 15.7096 18.444 15.0544 18.7905L11.9481 20.4332C11.3376 20.7561 10.6037 20.7411 10.0068 20.3937L5.61719 17.838" stroke="white" stroke-width="1.75" stroke-linecap="round"/>
<path d="M20.4308 21.2449L15.5723 24.0186" stroke="white" stroke-width="1.75" stroke-linecap="round"/>
<path d="M140.304 12H144.047V15.0629H140.304V12ZM138.49 26.3483H140.722V19.9163H138.49V17.0655H144.001V26.3483H146V29.1992H138.49V26.3483Z" fill="white"/>
<path d="M129.776 29.5528C128.536 29.5528 127.552 29.0187 126.823 27.9506C126.095 26.8826 125.73 25.4297 125.73 23.5919C125.73 21.3616 126.288 19.6652 127.404 18.5029C128.52 17.3249 130.125 16.7358 132.217 16.7358C133.395 16.7358 134.775 16.9243 136.356 17.3013V29.1993H133.24L133.31 27.2674H133.217C132.814 28.0056 132.318 28.5711 131.729 28.9637C131.156 29.3564 130.504 29.5528 129.776 29.5528ZM130.473 26.6548C130.954 26.6548 131.427 26.3956 131.892 25.8773C132.357 25.359 132.791 24.6679 133.194 23.804V19.8458C132.698 19.7045 132.202 19.6338 131.706 19.6338C130.776 19.6338 130.07 19.9558 129.59 20.5998C129.125 21.2437 128.892 22.194 128.892 23.4506C128.892 24.4401 129.032 25.2255 129.311 25.8066C129.59 26.3721 129.977 26.6548 130.473 26.6548Z" fill="white"/>
<path d="M121.36 30.0001C120.709 30.0001 120.143 29.7566 119.662 29.2697C119.197 28.7985 118.965 28.233 118.965 27.5733C118.965 26.8979 119.197 26.3246 119.662 25.8534C120.143 25.3665 120.709 25.123 121.36 25.123C122.026 25.123 122.592 25.3665 123.057 25.8534C123.522 26.3246 123.754 26.8979 123.754 27.5733C123.754 28.233 123.522 28.7985 123.057 29.2697C122.592 29.7566 122.026 30.0001 121.36 30.0001Z" fill="white"/>
<path d="M105.207 17.0657H108.416V19.1626C108.912 18.3301 109.485 17.7175 110.136 17.3249C110.787 16.9322 111.547 16.7358 112.415 16.7358C113.701 16.7358 114.709 17.1285 115.437 17.9139C116.166 18.6835 116.53 19.7594 116.53 21.1417V29.1993H113.252V21.66C113.252 21.0317 113.097 20.5448 112.787 20.1992C112.477 19.838 112.058 19.6573 111.531 19.6573C110.911 19.6573 110.322 19.8929 109.764 20.3642C109.206 20.8354 108.78 21.4322 108.485 22.1548V29.1993H105.207V17.0657Z" fill="white"/>
<path d="M95.9186 29.5528C94.6786 29.5528 93.6943 29.0187 92.9658 27.9506C92.2373 26.8826 91.873 25.4297 91.873 23.5919C91.873 21.3616 92.431 19.6652 93.5471 18.5029C94.6631 17.3249 96.2673 16.7358 98.3598 16.7358C99.5378 16.7358 100.917 16.9243 102.498 17.3013V29.1993H99.3828L99.4526 27.2674H99.3596C98.9566 28.0056 98.4606 28.5711 97.8716 28.9637C97.2981 29.3564 96.6471 29.5528 95.9186 29.5528ZM96.6161 26.6548C97.0966 26.6548 97.5693 26.3956 98.0343 25.8773C98.4993 25.359 98.9333 24.6679 99.3363 23.804V19.8458C98.8403 19.7045 98.3443 19.6338 97.8483 19.6338C96.9183 19.6338 96.2131 19.9558 95.7326 20.5998C95.2676 21.2437 95.0351 22.194 95.0351 23.4506C95.0351 24.4401 95.1746 25.2255 95.4536 25.8066C95.7326 26.3721 96.1201 26.6548 96.6161 26.6548Z" fill="white"/>
<path d="M84.3081 29.5528C83.0991 29.5528 82.0296 29.2857 81.0996 28.7517C80.1851 28.2177 79.4721 27.4716 78.9606 26.5134C78.4491 25.5396 78.1934 24.4166 78.1934 23.1443C78.1934 21.872 78.4414 20.7568 78.9374 19.7987C79.4489 18.8249 80.1619 18.0709 81.0764 17.5369C82.0064 17.0029 83.0759 16.7358 84.2849 16.7358C85.4939 16.7358 86.5557 17.0029 87.4702 17.5369C88.4002 18.0552 89.1132 18.7935 89.6092 19.7516C90.1207 20.7097 90.3764 21.8171 90.3764 23.0736C90.3764 24.3459 90.1207 25.4768 89.6092 26.4663C89.1132 27.4402 88.4002 28.202 87.4702 28.7517C86.5557 29.2857 85.5016 29.5528 84.3081 29.5528ZM84.2849 26.6784C85.1219 26.6784 85.7884 26.3564 86.2844 25.7124C86.7959 25.0527 87.0517 24.1888 87.0517 23.1207C87.0517 22.0527 86.7959 21.2045 86.2844 20.5762C85.7884 19.9322 85.1219 19.6102 84.2849 19.6102C83.4479 19.6102 82.7736 19.9322 82.2621 20.5762C81.7661 21.2045 81.5181 22.0527 81.5181 23.1207C81.5181 24.1888 81.7661 25.0527 82.2621 25.7124C82.7736 26.3564 83.4479 26.6784 84.2849 26.6784Z" fill="white"/>
<path d="M69.8438 26.3483H71.9595V14.8273H69.96V12H75.2378V26.3483H77.3535V29.1992H69.8438V26.3483Z" fill="#25AAE5"/>
<path d="M61.4043 26.3483H63.5201V14.8273H61.5205V12H66.7983V26.3483H68.9141V29.1992H61.4043V26.3483Z" fill="#25AAE5"/>
<path d="M53.0455 29.5526C51.8055 29.5526 50.8213 29.0186 50.0928 27.9505C49.3643 26.8824 49 25.4295 49 23.5918C49 21.3614 49.558 19.6651 50.674 18.5028C51.79 17.3247 53.3943 16.7357 55.4868 16.7357C56.6648 16.7357 58.0443 16.9242 59.6253 17.3012V29.1992H56.5098L56.5795 27.2673H56.4865C56.0835 28.0055 55.5875 28.5709 54.9985 28.9636C54.425 29.3563 53.774 29.5526 53.0455 29.5526ZM53.743 26.6547C54.2235 26.6547 54.6963 26.3955 55.1613 25.8772C55.6263 25.3589 56.0603 24.6678 56.4633 23.8039V19.8457C55.9673 19.7043 55.4713 19.6337 54.9753 19.6337C54.0453 19.6337 53.34 19.9557 52.8595 20.5996C52.3945 21.2436 52.162 22.1939 52.162 23.4505C52.162 24.44 52.3015 25.2254 52.5805 25.8065C52.8595 26.372 53.247 26.6547 53.743 26.6547Z" fill="#25AAE5"/>
</svg>
