<svg width="146" height="42" viewBox="0 0 146 42" fill="none" xmlns="http://www.w3.org/2000/svg">
<path d="M31.4213 3.0438L28.8741 1.54973C28.2604 1.18977 27.5618 1 26.8503 1H25.2256C24.121 1 23.2256 1.89543 23.2256 3V40C23.2256 40.5523 23.6733 41 24.2256 41H26.9669C27.6667 41 28.3543 40.8164 28.961 40.4675L31.9397 38.7544C32.5602 38.3976 32.9427 37.7364 32.9427 37.0207V30.8297" stroke="white" stroke-width="1.75" stroke-linecap="round"/>
<path d="M35.1978 36.9142L37.2016 35.7416C37.8147 35.3829 38.1915 34.7258 38.1915 34.0155V29.8096M27.8855 36.4762V30.9617C27.8855 30.2485 28.2652 29.5894 28.8821 29.2316L33.0876 26.7925" stroke="white" stroke-width="1.75" stroke-linecap="round"/>
<path d="M43.0007 23.3865V26.3049C43.0007 27.0269 42.6116 27.6929 41.9826 28.0473L39.6645 29.3536C39.0546 29.6972 38.3095 29.697 37.6999 29.3531L34.0065 27.2694C33.378 26.9148 32.9892 26.2491 32.9892 25.5275V23.3865" stroke="white" stroke-width="1.75" stroke-linecap="round"/>
<path d="M39.3691 13.8948L41.9816 15.3651C42.6112 15.7194 43.0007 16.3856 43.0007 17.108V19.9463C43.0007 20.6586 42.6219 21.3171 42.0062 21.6752L37.8968 24.0651" stroke="white" stroke-width="1.75" stroke-linecap="round"/>
<path d="M32.4496 15.7906L37.1901 13.0587C37.8097 12.7016 38.1915 12.0409 38.1915 11.3258V8.05098C38.1915 7.33067 37.8041 6.66599 37.1774 6.31089L34.368 4.71904C33.7563 4.37249 33.0077 4.37249 32.3961 4.71904L27.8855 7.27476" stroke="white" stroke-width="1.75" stroke-linecap="round"/>
<path d="M33.8203 9.37079L28.887 12.2007C28.2654 12.5572 27.8821 13.219 27.8821 13.9355V17.0225C27.8821 17.7636 28.292 18.444 28.9471 18.7905L32.0535 20.4332C32.664 20.756 33.3979 20.7411 33.9947 20.3936L38.3844 17.8379" stroke="white" stroke-width="1.75" stroke-linecap="round"/>
<path d="M23.5672 21.2449L28.4258 24.0186" stroke="white" stroke-width="1.75" stroke-linecap="round"/>
<mask id="path-8-inside-1_62_227" fill="white">
<ellipse cx="28.4284" cy="24.0164" rx="1.42321" ry="1.41119"/>
</mask>
<ellipse cx="28.4284" cy="24.0164" rx="1.42321" ry="1.41119" fill="black"/>
<path d="M27.8516 24.0164C27.8516 23.6753 28.1259 23.4276 28.4284 23.4276V27.4276C30.303 27.4276 31.8516 25.9163 31.8516 24.0164H27.8516ZM28.4284 23.4276C28.731 23.4276 29.0052 23.6753 29.0052 24.0164H25.0052C25.0052 25.9163 26.5539 27.4276 28.4284 27.4276V23.4276ZM29.0052 24.0164C29.0052 24.3576 28.731 24.6052 28.4284 24.6052V20.6052C26.5539 20.6052 25.0052 22.1165 25.0052 24.0164H29.0052ZM28.4284 24.6052C28.1259 24.6052 27.8516 24.3576 27.8516 24.0164H31.8516C31.8516 22.1165 30.303 20.6052 28.4284 20.6052V24.6052Z" fill="white" mask="url(#path-8-inside-1_62_227)"/>
<mask id="path-10-inside-2_62_227" fill="white">
<ellipse cx="32.993" cy="23.3841" rx="1.42321" ry="1.41119"/>
</mask>
<ellipse cx="32.993" cy="23.3841" rx="1.42321" ry="1.41119" fill="black"/>
<path d="M32.4162 23.3841C32.4162 23.0429 32.6905 22.7953 32.993 22.7953V26.7953C34.8676 26.7953 36.4162 25.284 36.4162 23.3841H32.4162ZM32.993 22.7953C33.2956 22.7953 33.5698 23.0429 33.5698 23.3841H29.5698C29.5698 25.284 31.1185 26.7953 32.993 26.7953V22.7953ZM33.5698 23.3841C33.5698 23.7252 33.2956 23.9729 32.993 23.9729V19.9729C31.1185 19.9729 29.5698 21.4842 29.5698 23.3841H33.5698ZM32.993 23.9729C32.6905 23.9729 32.4162 23.7252 32.4162 23.3841H36.4162C36.4162 21.4842 34.8676 19.9729 32.993 19.9729V23.9729Z" fill="white" mask="url(#path-10-inside-2_62_227)"/>
<mask id="path-12-inside-3_62_227" fill="white">
<ellipse cx="32.9453" cy="30.8288" rx="1.42321" ry="1.41119"/>
</mask>
<ellipse cx="32.9453" cy="30.8288" rx="1.42321" ry="1.41119" fill="black"/>
<path d="M32.3685 30.8288C32.3685 30.4877 32.6428 30.24 32.9453 30.24V34.24C34.8199 34.24 36.3685 32.7287 36.3685 30.8288H32.3685ZM32.9453 30.24C33.2478 30.24 33.5221 30.4877 33.5221 30.8288H29.5221C29.5221 32.7287 31.0707 34.24 32.9453 34.24V30.24ZM33.5221 30.8288C33.5221 31.1699 33.2478 31.4176 32.9453 31.4176V27.4176C31.0707 27.4176 29.5221 28.9289 29.5221 30.8288H33.5221ZM32.9453 31.4176C32.6428 31.4176 32.3685 31.1699 32.3685 30.8288H36.3685C36.3685 28.9289 34.8199 27.4176 32.9453 27.4176V31.4176Z" fill="white" mask="url(#path-12-inside-3_62_227)"/>
<mask id="path-14-inside-4_62_227" fill="white">
<ellipse cx="27.8894" cy="36.4758" rx="1.42321" ry="1.41119"/>
</mask>
<ellipse cx="27.8894" cy="36.4758" rx="1.42321" ry="1.41119" fill="black"/>
<path d="M27.3126 36.4758C27.3126 36.1346 27.5869 35.887 27.8894 35.887V39.887C29.764 39.887 31.3126 38.3757 31.3126 36.4758H27.3126ZM27.8894 35.887C28.192 35.887 28.4662 36.1346 28.4662 36.4758H24.4662C24.4662 38.3757 26.0149 39.887 27.8894 39.887V35.887ZM28.4662 36.4758C28.4662 36.8169 28.192 37.0646 27.8894 37.0646V33.0646C26.0149 33.0646 24.4662 34.5759 24.4662 36.4758H28.4662ZM27.8894 37.0646C27.5869 37.0646 27.3126 36.8169 27.3126 36.4758H31.3126C31.3126 34.5759 29.764 33.0646 27.8894 33.0646V37.0646Z" fill="white" mask="url(#path-14-inside-4_62_227)"/>
<mask id="path-16-inside-5_62_227" fill="white">
<ellipse cx="27.8894" cy="7.27484" rx="1.42321" ry="1.41119"/>
</mask>
<ellipse cx="27.8894" cy="7.27484" rx="1.42321" ry="1.41119" fill="black"/>
<path d="M27.3126 7.27484C27.3126 6.9337 27.5869 6.68603 27.8894 6.68603V10.686C29.764 10.686 31.3126 9.17474 31.3126 7.27484H27.3126ZM27.8894 6.68603C28.192 6.68603 28.4662 6.9337 28.4662 7.27484H24.4662C24.4662 9.17474 26.0149 10.686 27.8894 10.686V6.68603ZM28.4662 7.27484C28.4662 7.61598 28.192 7.86365 27.8894 7.86365V3.86365C26.0149 3.86365 24.4662 5.37494 24.4662 7.27484H28.4662ZM27.8894 7.86365C27.5869 7.86365 27.3126 7.61598 27.3126 7.27484H31.3126C31.3126 5.37494 29.764 3.86365 27.8894 3.86365V7.86365Z" fill="white" mask="url(#path-16-inside-5_62_227)"/>
<mask id="path-18-inside-6_62_227" fill="white">
<ellipse cx="33.8284" cy="9.36853" rx="1.42321" ry="1.41119"/>
</mask>
<ellipse cx="33.8284" cy="9.36853" rx="1.42321" ry="1.41119" fill="black"/>
<path d="M33.2516 9.36853C33.2516 9.02739 33.5259 8.77972 33.8284 8.77972V12.7797C35.703 12.7797 37.2516 11.2684 37.2516 9.36853H33.2516ZM33.8284 8.77972C34.1309 8.77972 34.4052 9.02739 34.4052 9.36853H30.4052C30.4052 11.2684 31.9538 12.7797 33.8284 12.7797V8.77972ZM34.4052 9.36853C34.4052 9.70967 34.1309 9.95734 33.8284 9.95734V5.95734C31.9538 5.95734 30.4052 7.46863 30.4052 9.36853H34.4052ZM33.8284 9.95734C33.5259 9.95734 33.2516 9.70967 33.2516 9.36853H37.2516C37.2516 7.46863 35.703 5.95734 33.8284 5.95734V9.95734Z" fill="white" mask="url(#path-18-inside-6_62_227)"/>
<mask id="path-20-inside-7_62_227" fill="white">
<ellipse cx="32.454" cy="15.7905" rx="1.42321" ry="1.41119"/>
</mask>
<ellipse cx="32.454" cy="15.7905" rx="1.42321" ry="1.41119" fill="black"/>
<path d="M31.8772 15.7905C31.8772 15.4493 32.1515 15.2017 32.454 15.2017V19.2017C34.3286 19.2017 35.8772 17.6904 35.8772 15.7905H31.8772ZM32.454 15.2017C32.7566 15.2017 33.0308 15.4493 33.0308 15.7905H29.0308C29.0308 17.6904 30.5795 19.2017 32.454 19.2017V15.2017ZM33.0308 15.7905C33.0308 16.1316 32.7566 16.3793 32.454 16.3793V12.3793C30.5795 12.3793 29.0308 13.8906 29.0308 15.7905H33.0308ZM32.454 16.3793C32.1515 16.3793 31.8772 16.1316 31.8772 15.7905H35.8772C35.8772 13.8906 34.3286 12.3793 32.454 12.3793V16.3793Z" fill="white" mask="url(#path-20-inside-7_62_227)"/>
<mask id="path-22-inside-8_62_227" fill="white">
<ellipse cx="37.8998" cy="24.0631" rx="1.42321" ry="1.41119"/>
</mask>
<ellipse cx="37.8998" cy="24.0631" rx="1.42321" ry="1.41119" fill="black"/>
<path d="M37.323 24.0631C37.323 23.722 37.5972 23.4743 37.8998 23.4743V27.4743C39.7743 27.4743 41.323 25.963 41.323 24.0631H37.323ZM37.8998 23.4743C38.2023 23.4743 38.4765 23.722 38.4765 24.0631H34.4765C34.4765 25.963 36.0252 27.4743 37.8998 27.4743V23.4743ZM38.4765 24.0631C38.4765 24.4043 38.2023 24.6519 37.8998 24.6519V20.6519C36.0252 20.6519 34.4765 22.1632 34.4765 24.0631H38.4765ZM37.8998 24.6519C37.5972 24.6519 37.323 24.4043 37.323 24.0631H41.323C41.323 22.1632 39.7743 20.6519 37.8998 20.6519V24.6519Z" fill="white" mask="url(#path-22-inside-8_62_227)"/>
<mask id="path-24-inside-9_62_227" fill="white">
<ellipse cx="38.391" cy="17.8372" rx="1.42321" ry="1.41119"/>
</mask>
<ellipse cx="38.391" cy="17.8372" rx="1.42321" ry="1.41119" fill="black"/>
<path d="M37.8142 17.8372C37.8142 17.4961 38.0885 17.2484 38.391 17.2484V21.2484C40.2656 21.2484 41.8142 19.7371 41.8142 17.8372H37.8142ZM38.391 17.2484C38.6936 17.2484 38.9678 17.4961 38.9678 17.8372H34.9678C34.9678 19.7371 36.5165 21.2484 38.391 21.2484V17.2484ZM38.9678 17.8372C38.9678 18.1784 38.6936 18.426 38.391 18.426V14.426C36.5165 14.426 34.9678 15.9373 34.9678 17.8372H38.9678ZM38.391 18.426C38.0885 18.426 37.8142 18.1784 37.8142 17.8372H41.8142C41.8142 15.9373 40.2656 14.426 38.391 14.426V18.426Z" fill="white" mask="url(#path-24-inside-9_62_227)"/>
<path d="M12.5834 3.0438L15.1306 1.54973C15.7443 1.18977 16.4429 1 17.1544 1H18.7791C19.8837 1 20.7791 1.89543 20.7791 3V39C20.7791 40.1046 19.8837 41 18.7791 41H17.0379C16.338 41 15.6504 40.8164 15.0437 40.4675L12.065 38.7544C11.4445 38.3976 11.0621 37.7364 11.0621 37.0207V30.8297" stroke="white" stroke-width="1.75" stroke-linecap="round"/>
<path d="M8.80489 36.9142L6.80113 35.7416C6.18804 35.3829 5.81125 34.7258 5.81125 34.0155V29.8096M16.1172 36.4762V30.9617C16.1172 30.2485 15.7375 29.5894 15.1206 29.2316L10.9152 26.7925" stroke="white" stroke-width="1.75" stroke-linecap="round"/>
<path d="M1 23.3845V26.3029C1 27.0249 1.38915 27.6909 2.01816 28.0453L4.33628 29.3516C4.9461 29.6952 5.69119 29.695 6.30084 29.3511L9.99425 27.2674C10.6228 26.9128 11.0115 26.2471 11.0115 25.5255V23.3358" stroke="white" stroke-width="1.75" stroke-linecap="round"/>
<path d="M4.63163 13.8949L2.01911 15.3651C1.38956 15.7194 1 16.3857 1 17.1081V19.9463C1 20.6586 1.3788 21.3171 1.99451 21.6752L6.10391 24.0652" stroke="white" stroke-width="1.75" stroke-linecap="round"/>
<path d="M11.5532 15.7906L6.81263 13.0587C6.19305 12.7016 5.81125 12.0409 5.81125 11.3258V8.05098C5.81125 7.33067 6.19859 6.66599 6.82531 6.31089L9.63477 4.71904C10.2464 4.37249 10.995 4.37249 11.6067 4.71904L16.1172 7.27476" stroke="white" stroke-width="1.75" stroke-linecap="round"/>
<path d="M10.1804 9.37079L15.1138 12.2007C15.7353 12.5572 16.1186 13.219 16.1186 13.9355V17.0225C16.1186 17.7636 15.7088 18.444 15.0536 18.7905L11.9472 20.4332C11.3367 20.756 10.6028 20.7411 10.006 20.3936L5.61633 17.8379" stroke="white" stroke-width="1.75" stroke-linecap="round"/>
<path d="M20.4315 21.2449L15.573 24.0186" stroke="white" stroke-width="1.75" stroke-linecap="round"/>
<path d="M140.304 12H144.047V15.0628H140.304V12ZM138.49 26.3483H140.722V19.9163H138.49V17.0655H144V26.3483H146V29.1991H138.49V26.3483Z" fill="white"/>
<path d="M129.777 29.5527C128.537 29.5527 127.553 29.0187 126.824 27.9506C126.096 26.8825 125.731 25.4296 125.731 23.5919C125.731 21.3615 126.289 19.6652 127.405 18.5028C128.521 17.3248 130.126 16.7358 132.218 16.7358C133.396 16.7358 134.776 16.9243 136.357 17.3013V29.1993H133.241L133.311 27.2674H133.218C132.815 28.0056 132.319 28.571 131.73 28.9637C131.156 29.3564 130.505 29.5527 129.777 29.5527ZM130.474 26.6548C130.955 26.6548 131.428 26.3956 131.893 25.8773C132.358 25.359 132.792 24.6678 133.195 23.804V19.8458C132.699 19.7044 132.203 19.6338 131.707 19.6338C130.777 19.6338 130.071 19.9557 129.591 20.5997C129.126 21.2437 128.893 22.194 128.893 23.4506C128.893 24.4401 129.033 25.2254 129.312 25.8066C129.591 26.3721 129.978 26.6548 130.474 26.6548Z" fill="white"/>
<path d="M121.361 30C120.71 30 120.144 29.7566 119.663 29.2697C119.198 28.7985 118.966 28.233 118.966 27.5733C118.966 26.8979 119.198 26.3246 119.663 25.8534C120.144 25.3665 120.71 25.123 121.361 25.123C122.027 25.123 122.593 25.3665 123.058 25.8534C123.523 26.3246 123.755 26.8979 123.755 27.5733C123.755 28.233 123.523 28.7985 123.058 29.2697C122.593 29.7566 122.027 30 121.361 30Z" fill="white"/>
<path d="M105.207 17.0657H108.416V19.1625C108.912 18.3301 109.485 17.7175 110.136 17.3248C110.787 16.9321 111.547 16.7358 112.415 16.7358C113.701 16.7358 114.709 17.1285 115.437 17.9138C116.166 18.6835 116.53 19.7594 116.53 21.1416V29.1993H113.252V21.66C113.252 21.0317 113.097 20.5448 112.787 20.1992C112.477 19.8379 112.058 19.6573 111.531 19.6573C110.911 19.6573 110.322 19.8929 109.764 20.3641C109.206 20.8353 108.78 21.4322 108.485 22.1547V29.1993H105.207V17.0657Z" fill="white"/>
<path d="M95.9189 29.5527C94.6789 29.5527 93.6946 29.0187 92.9661 27.9506C92.2376 26.8825 91.8733 25.4296 91.8733 23.5919C91.8733 21.3615 92.4313 19.6652 93.5474 18.5028C94.6634 17.3248 96.2676 16.7358 98.3601 16.7358C99.5381 16.7358 100.918 16.9243 102.499 17.3013V29.1993H99.3831L99.4529 27.2674H99.3599C98.9569 28.0056 98.4609 28.571 97.8719 28.9637C97.2984 29.3564 96.6474 29.5527 95.9189 29.5527ZM96.6164 26.6548C97.0969 26.6548 97.5696 26.3956 98.0346 25.8773C98.4996 25.359 98.9336 24.6678 99.3366 23.804V19.8458C98.8406 19.7044 98.3446 19.6338 97.8486 19.6338C96.9186 19.6338 96.2134 19.9557 95.7329 20.5997C95.2679 21.2437 95.0354 22.194 95.0354 23.4506C95.0354 24.4401 95.1749 25.2254 95.4539 25.8066C95.7329 26.3721 96.1204 26.6548 96.6164 26.6548Z" fill="white"/>
<path d="M84.3093 29.5527C83.1003 29.5527 82.0308 29.2857 81.1008 28.7517C80.1863 28.2176 79.4733 27.4715 78.9617 26.5134C78.4502 25.5396 78.1945 24.4165 78.1945 23.1443C78.1945 21.872 78.4425 20.7568 78.9385 19.7987C79.45 18.8248 80.163 18.0709 81.0775 17.5369C82.0075 17.0028 83.077 16.7358 84.286 16.7358C85.495 16.7358 86.5568 17.0028 87.4713 17.5369C88.4013 18.0552 89.1143 18.7934 89.6103 19.7516C90.1218 20.7097 90.3776 21.817 90.3776 23.0736C90.3776 24.3459 90.1218 25.4768 89.6103 26.4663C89.1143 27.4401 88.4013 28.2019 87.4713 28.7517C86.5568 29.2857 85.5028 29.5527 84.3093 29.5527ZM84.286 26.6783C85.123 26.6783 85.7895 26.3563 86.2855 25.7124C86.797 25.0527 87.0528 24.1888 87.0528 23.1207C87.0528 22.0526 86.797 21.2045 86.2855 20.5762C85.7895 19.9322 85.123 19.6102 84.286 19.6102C83.449 19.6102 82.7748 19.9322 82.2633 20.5762C81.7673 21.2045 81.5193 22.0526 81.5193 23.1207C81.5193 24.1888 81.7673 25.0527 82.2633 25.7124C82.7748 26.3563 83.449 26.6783 84.286 26.6783Z" fill="white"/>
<path d="M69.8445 26.3483H71.9603V14.8272H69.9608V12H75.2385V26.3483H77.3543V29.1991H69.8445V26.3483Z" fill="#25AAE5"/>
<path d="M61.4049 26.3483H63.5206V14.8272H61.5211V12H66.7989V26.3483H68.9147V29.1991H61.4049V26.3483Z" fill="#25AAE5"/>
<path d="M53.0463 29.5526C51.8062 29.5526 50.822 29.0185 50.0935 27.9505C49.365 26.8824 49.0007 25.4295 49.0007 23.5918C49.0007 21.3614 49.5587 19.665 50.6747 18.5027C51.7907 17.3247 53.395 16.7357 55.4875 16.7357C56.6655 16.7357 58.045 16.9241 59.626 17.3011V29.1992H56.5105L56.5803 27.2672H56.4873C56.0843 28.0054 55.5883 28.5709 54.9993 28.9636C54.4258 29.3562 53.7748 29.5526 53.0463 29.5526ZM53.7438 26.6546C54.2243 26.6546 54.697 26.3955 55.162 25.8771C55.627 25.3588 56.061 24.6677 56.464 23.8038V19.8456C55.968 19.7043 55.472 19.6336 54.976 19.6336C54.046 19.6336 53.3408 19.9556 52.8603 20.5996C52.3953 21.2436 52.1628 22.1938 52.1628 23.4504C52.1628 24.4399 52.3023 25.2253 52.5813 25.8064C52.8603 26.3719 53.2478 26.6546 53.7438 26.6546Z" fill="#25AAE5"/>
</svg>
